<?xml version="1.0" standalone="no"?>
<!DOCTYPE svg PUBLIC "-//W3C//DTD SVG 20010904//EN"
 "http://www.w3.org/TR/2001/REC-SVG-20010904/DTD/svg10.dtd">
<svg version="1.0" xmlns="http://www.w3.org/2000/svg"
 width="360.000000pt" height="360.000000pt" viewBox="0 0 360.000000 360.000000"
 preserveAspectRatio="xMidYMid meet">

<g transform="translate(0.000000,360.000000) scale(0.100000,-0.100000)"
fill="#000000" stroke="none">
<path d="M1135 3030 c-128 -26 -262 -105 -394 -233 -156 -152 -245 -333 -272
-550 -33 -276 78 -590 317 -892 201 -254 446 -453 876 -709 l147 -88 98 63
c868 560 1280 1099 1224 1602 -25 221 -112 400 -271 558 -163 162 -361 258
-531 259 -162 0 -366 -99 -495 -243 l-46 -52 -31 40 c-78 96 -255 208 -382
240 -63 16 -173 18 -240 5z m615 -669 c67 -48 99 -198 65 -300 -9 -28 -32 -67
-50 -86 -28 -30 -39 -35 -78 -35 -39 0 -52 5 -80 34 -69 68 -89 214 -43 311
46 98 116 127 186 76z m399 -76 c95 -48 75 -244 -35 -351 -78 -75 -157 -79
-208 -11 -29 39 -29 143 1 208 28 62 89 128 138 150 49 23 68 23 104 4z m-752
-190 c33 -9 98 -88 112 -137 45 -147 -28 -278 -137 -248 -49 13 -102 69 -127
133 -23 61 -18 165 11 204 23 32 82 65 104 59 8 -3 25 -7 37 -11z m945 -254
c24 -27 28 -40 28 -89 0 -69 -23 -123 -75 -176 -45 -45 -90 -66 -142 -66 -67
0 -113 52 -113 128 0 44 47 146 83 180 73 69 169 79 219 23z m-513 -70 c123
-63 269 -339 244 -461 -11 -57 -106 -109 -170 -94 -15 3 -57 22 -93 42 l-64
35 -143 -2 c-90 -1 -157 2 -183 10 -44 13 -100 68 -100 97 0 9 14 46 31 82 53
113 228 264 348 300 45 14 90 11 130 -9z"/>
</g>
</svg>
